<svg width="113" height="125" viewBox="0 0 113 125" fill="none" xmlns="http://www.w3.org/2000/svg">
<g filter="url(#filter0_d_1000_107)">
<path d="M54.8268 2.40171L3.55282 30.9943C3.08023 31.2594 2.68794 31.6404 2.41538 32.0989C2.14281 32.5575 1.99955 33.0775 2 33.6067L2 90.7918C1.99955 91.321 2.14281 91.841 2.41538 92.2996C2.68794 92.7582 3.08023 93.1391 3.55282 93.4043L54.8268 121.997C55.2971 122.26 55.8305 122.398 56.3734 122.398C56.9164 122.398 57.4498 122.26 57.92 121.997L109.194 93.4043C110.157 92.8625 110.747 91.8693 110.747 90.7918L110.747 33.6067C110.747 33.0775 110.604 32.5575 110.332 32.0989C110.059 31.6404 109.667 31.2594 109.194 30.9943L57.92 2.40171C57.4498 2.13861 56.9164 2.0001 56.3734 2.0001C55.8305 2.0001 55.2971 2.13861 54.8268 2.40171V2.40171ZM104.542 35.3463L104.542 89.0522L56.3734 115.911L8.20506 89.0462L8.20506 35.3403L56.3734 8.48741L104.542 35.3463V35.3463Z" fill="#1D1A23"/>
</g>
<defs>
<filter id="filter0_d_1000_107" x="0" y="0" width="112.747" height="124.398" filterUnits="userSpaceOnUse" color-interpolation-filters="sRGB">
<feFlood flood-opacity="0" result="BackgroundImageFix"/>
<feColorMatrix in="SourceAlpha" type="matrix" values="0 0 0 0 0 0 0 0 0 0 0 0 0 0 0 0 0 0 127 0" result="hardAlpha"/>
<feOffset/>
<feGaussianBlur stdDeviation="1"/>
<feComposite in2="hardAlpha" operator="out"/>
<feColorMatrix type="matrix" values="0 0 0 0 0.113725 0 0 0 0 0.101961 0 0 0 0 0.137255 0 0 0 1 0"/>
<feBlend mode="normal" in2="BackgroundImageFix" result="effect1_dropShadow_1000_107"/>
<feBlend mode="normal" in="SourceGraphic" in2="effect1_dropShadow_1000_107" result="shape"/>
</filter>
</defs>
</svg>
