<svg width="125" height="137" viewBox="0 0 125 137" fill="none" xmlns="http://www.w3.org/2000/svg">
<g filter="url(#filter0_d_990_100)">
<path d="M60.8268 8.40171L9.55282 36.9943C9.08023 37.2594 8.68794 37.6404 8.41538 38.0989C8.14281 38.5575 7.99955 39.0775 8 39.6067L8 96.7918C7.99955 97.321 8.14281 97.841 8.41538 98.2996C8.68794 98.7582 9.08023 99.1391 9.55282 99.4043L60.8268 127.997C61.2971 128.26 61.8305 128.398 62.3734 128.398C62.9164 128.398 63.4498 128.26 63.92 127.997L115.194 99.4043C116.157 98.8625 116.747 97.8693 116.747 96.7918L116.747 39.6067C116.747 39.0775 116.604 38.5575 116.332 38.0989C116.059 37.6404 115.667 37.2594 115.194 36.9943L63.92 8.40171C63.4498 8.13861 62.9164 8.0001 62.3734 8.0001C61.8305 8.0001 61.2971 8.13861 60.8268 8.40171V8.40171ZM110.542 41.3463L110.542 95.0522L62.3734 121.911L14.2051 95.0462L14.2051 41.3403L62.3734 14.4874L110.542 41.3463V41.3463Z" fill="#FF3E48"/>
</g>
<defs>
<filter id="filter0_d_990_100" x="0" y="0" width="124.747" height="136.398" filterUnits="userSpaceOnUse" color-interpolation-filters="sRGB">
<feFlood flood-opacity="0" result="BackgroundImageFix"/>
<feColorMatrix in="SourceAlpha" type="matrix" values="0 0 0 0 0 0 0 0 0 0 0 0 0 0 0 0 0 0 127 0" result="hardAlpha"/>
<feOffset/>
<feGaussianBlur stdDeviation="4"/>
<feComposite in2="hardAlpha" operator="out"/>
<feColorMatrix type="matrix" values="0 0 0 0 0.979167 0 0 0 0 0.273351 0 0 0 0 0.309922 0 0 0 1 0"/>
<feBlend mode="normal" in2="BackgroundImageFix" result="effect1_dropShadow_990_100"/>
<feBlend mode="normal" in="SourceGraphic" in2="effect1_dropShadow_990_100" result="shape"/>
</filter>
</defs>
</svg>
